<?xml version="1.0" encoding="UTF-8"?>
<svg width="720px" height="480px" viewBox="0 0 720 480" version="1.1" xmlns="http://www.w3.org/2000/svg" xmlns:xlink="http://www.w3.org/1999/xlink">
    <!-- Generator: Sketch 44 (41411) - http://www.bohemiancoding.com/sketch -->
    <title>Slice 1</title>
    <desc>Created with Sketch.</desc>
    <defs></defs>
    <g id="Page-1" stroke="none" stroke-width="1" fill="none" fill-rule="evenodd">
        <g id="hero" transform="translate(115.000000, 37.000000)">
            <g id="Group">
                <g fill-rule="nonzero">
                    <g id="Shape">
                        <path d="M18.1738519,405.096556 C9.14722222,405.096556 1.70885185,397.741778 1.70885185,388.631556 L1.70885185,18.3684444 C1.70885185,9.34181481 9.06362963,1.90344444 18.1738519,1.90344444 L187.842148,1.90344444 C196.868778,1.90344444 204.307148,9.25822222 204.307148,18.3684444 L204.307148,388.630185 C204.307148,397.656815 196.95237,405.095185 187.842148,405.095185 L18.1738519,405.095185 L18.1738519,405.096556 Z" fill="#FAFAFA"></path>
                        <path d="M187.843519,2.90655556 C196.368593,2.90655556 203.305407,9.84337037 203.305407,18.3684444 L203.305407,388.630185 C203.305407,397.155259 196.368593,404.092074 187.843519,404.092074 L18.1738519,404.092074 C9.64877778,404.092074 2.71196296,397.155259 2.71196296,388.630185 L2.71196296,18.3684444 C2.71196296,9.84337037 9.64877778,2.90655556 18.1738519,2.90655556 L187.843519,2.90655556 L187.843519,2.90655556 Z M187.843519,0.983925926 L18.1738519,0.983925926 C8.56207407,0.983925926 0.789333333,8.75666667 0.789333333,18.3684444 L0.789333333,388.630185 C0.789333333,398.241963 8.56207407,406.014704 18.1738519,406.014704 L187.842148,406.014704 C197.453926,406.014704 205.226667,398.241963 205.226667,388.630185 L205.226667,18.3684444 C205.228037,8.84025926 197.455296,0.983925926 187.843519,0.983925926 L187.843519,0.983925926 Z" fill="#E6E7E8"></path>
                    </g>
                    <g transform="translate(10.711197, 40.858873)">
                        <rect id="Rectangle-path" fill="#F6F6F6" x="1.02739535" y="1.24712739" width="182.456593" height="322.871593"></rect>
                        <path d="M182.564469,2.16664591 L182.564469,323.115609 L2.03050646,323.115609 L2.03050646,2.16664591 L182.564469,2.16664591 L182.564469,2.16664591 Z M184.487099,0.24401628 L182.564469,0.24401628 L2.03050646,0.24401628 L0.10787683,0.24401628 L0.10787683,2.16664591 L0.10787683,323.115609 L0.10787683,325.038239 L2.03050646,325.038239 L182.564469,325.038239 L184.487099,325.038239 L184.487099,323.115609 L184.487099,2.16664591 L184.487099,0.24401628 L184.487099,0.24401628 Z" id="Shape" fill="#E6E7E8"></path>
                    </g>
                    <path d="M84.9547407,18.2848519 L84.9547407,19.7059259 C84.9547407,20.4582593 85.5398889,20.9598148 86.2086296,20.9598148 L119.723778,20.9598148 C120.476111,20.9598148 120.977667,20.3746667 120.977667,19.7059259 L120.977667,18.2848519 C120.977667,17.5325185 120.392519,17.030963 119.723778,17.030963 L86.2086296,17.030963 C85.5398889,16.9473704 84.9547407,17.5325185 84.9547407,18.2848519 Z" id="Shape" fill="#9E9E9E"></path>
                    <circle id="Oval" fill="#9E9E9E" cx="26.7825185" cy="18.9535926" r="4.01244444"></circle>
                    <path d="M94.9844815,34.1660741 L94.9844815,36.3394815 C94.9844815,37.4261852 95.8204074,38.2621111 96.9071111,38.2621111 L109.110259,38.2621111 C110.196963,38.2621111 111.032889,37.4261852 111.032889,36.3394815 L111.032889,34.1660741 C111.032889,33.0793704 110.196963,32.2434444 109.110259,32.2434444 L96.9071111,32.2434444 C95.8204074,32.2434444 94.9844815,33.0793704 94.9844815,34.1660741 Z" id="Shape" fill="#9E9E9E"></path>
                    <path d="M204.726481,151.345074 L203.305407,151.345074 L203.305407,115.238556 L204.726481,115.238556 C206.147556,115.238556 207.317852,116.408852 207.317852,117.829926 L207.317852,148.755074 C207.317852,150.259741 206.147556,151.345074 204.726481,151.345074 Z" id="Shape" fill="#E6E7E8"></path>
                    <path d="M204.726481,243.618963 L203.305407,243.618963 L203.305407,187.452963 L204.726481,187.452963 C206.147556,187.452963 207.317852,188.623259 207.317852,190.044333 L207.317852,241.028963 C207.317852,242.532259 206.147556,243.618963 204.726481,243.618963 Z" id="Shape" fill="#E6E7E8"></path>
                </g>
                <rect id="Rectangle-path" fill="#58595B" fill-rule="nonzero" x="12.7417037" y="343.413444" width="180.45037" height="20.6446296"></rect>
                <g transform="translate(17.814815, 231.592593)">
                    <path d="M97.061963,84.4065926 C97.061963,83.4870741 96.3096296,82.6511481 95.3065185,82.6511481 C94.3034074,82.6511481 93.5510741,83.4034815 93.5510741,84.4065926 C93.5510741,85.4097037 94.3034074,86.162037 95.3065185,86.162037 C96.3096296,86.162037 97.061963,85.3261111 97.061963,84.4065926" id="Shape" fill="#34A853" fill-rule="nonzero"></path>
                    <path d="M90.1251481,84.4065926 C90.1251481,83.4870741 89.3728148,82.6511481 88.3697037,82.6511481 C87.4501852,82.6511481 86.6142593,83.4034815 86.6142593,84.4065926 C86.6142593,85.4097037 87.3665926,86.162037 88.3697037,86.162037 C89.3728148,86.0784444 90.1251481,85.3261111 90.1251481,84.4065926" id="Shape" fill="#FBBC05" fill-rule="nonzero"></path>
                    <path d="M83.1883333,84.4065926 C83.1883333,83.4870741 82.436,82.6511481 81.4328889,82.6511481 C80.4297778,82.6511481 79.6774444,83.4034815 79.6774444,84.4065926 C79.6774444,85.4097037 80.4297778,86.162037 81.4328889,86.162037 C82.436,86.162037 83.1883333,85.3261111 83.1883333,84.4065926" id="Shape" fill="#EA4335" fill-rule="nonzero"></path>
                    <circle id="Oval" fill="#4285F4" fill-rule="nonzero" cx="74.4960741" cy="84.4065926" r="1.75544444"></circle>
                    <path d="M11.9439807,28.8257407 L9.79575682,30.9991481 C8.93646728,31.8350741 7.81939088,32.3366296 6.44452762,32.3366296 L6.18814943,32.3366296 C3.266565,32.3366296 0.861962963,34.6772222 0.861962963,37.518 L0.861962963,47.9657037 C0.861962963,50.8078519 3.26797367,53.1470741 6.18814943,53.1470741 L66.8455388,53.1470741 C69.7671232,53.1470741 72.1717253,50.8064815 72.1717253,47.9657037 L72.1717253,37.518 C72.1717253,34.6758519 69.7657146,32.3366296 66.8455388,32.3366296 L17.4434337,32.3366296 C16.1544994,32.3366296 14.951494,31.8350741 14.0922045,30.9991481 L11.9439807,28.8257407 Z" id="Shape" stroke="#FFFFFF" stroke-width="0.771" fill="#FFFFFF" fill-rule="nonzero"></path>
                    <text id="Hi,-how-can-I-help?" fill="#212121" font-family="Roboto-Regular, Roboto" font-size="7.5" font-weight="normal">
                        <tspan x="6.87172222" y="45.7224593">Hi, how can I help?</tspan>
                    </text>
                    <circle id="Oval" fill="#34A853" fill-rule="nonzero" cx="28.7764074" cy="7.34518519" r="1.92262963"></circle>
                    <path d="M22.9262963,15.8702593 C25.0997037,15.8702593 26.8551481,14.1148148 26.8551481,11.9414074 C26.8551481,9.768 25.0997037,8.01255556 22.9262963,8.01255556 C20.7528889,8.01255556 18.9974444,9.768 18.9974444,11.9414074 C18.9974444,14.1161852 20.7528889,15.8702593 22.9262963,15.8702593" id="Shape" fill="#EA4335" fill-rule="nonzero"></path>
                    <path d="M22.9262963,26.2343704 C25.4340741,26.2343704 27.4402963,24.2281481 27.4402963,21.7203704 C27.4402963,19.2125926 25.4340741,17.2063704 22.9262963,17.2063704 C20.4185185,17.2063704 18.4122963,19.2125926 18.4122963,21.7203704 C18.3287037,24.2281481 20.4185185,26.2343704 22.9262963,26.2343704" id="Shape" fill="#FBBC05" fill-rule="nonzero"></path>
                    <circle id="Oval" fill="#4285F4" fill-rule="nonzero" cx="9.88722222" cy="8.01392593" r="7.77274074"></circle>
                </g>
            </g>
            <g id="Group" transform="translate(161.703704, 72.629630)" fill-rule="nonzero">
                <path d="M38.8431481,333.386444 L38.3415926,333.052074 C38.1744074,332.968481 33.744,330.126333 27.8938889,323.941852 C25.6368889,321.517667 23.4634815,318.927667 21.4586296,316.169111 C18.2821111,311.905889 15.5249259,307.309667 13.1007407,302.544889 C9.75703704,296.026037 7.08344444,288.920667 5.07722222,281.398704 C4.65925926,279.894037 4.32488889,278.38937 3.90692593,276.884704 C2.56944444,270.951 1.56633333,265.099519 0.981185185,258.99863 C0.814,257.577556 0.730407407,256.156481 0.646814815,254.48463 C0.47962963,252.22763 0.396037037,249.803444 0.396037037,247.464222 C0.396037037,245.875963 0.312444444,244.287704 0.312444444,242.617222 C0.312444444,242.199259 0.312444444,240.527407 0.312444444,240.109444 C0.396037037,235.344667 0.563222222,230.163296 0.814,223.81163 C0.814,222.808519 0.897592593,221.889 0.981185185,220.885889 C1.31555556,215.035778 1.64992593,208.515556 2.23507407,199.572519 L2.31866667,197.566296 C5.16081481,150.343333 9.58985185,95.0968519 12.7663704,56.8169259 C12.6827778,56.6497407 12.5991852,56.398963 12.5991852,56.1481852 C12.2648148,54.6435185 12.5155926,53.0552593 13.4351111,51.3834074 C19.6195926,40.0161852 58.7354444,23.8855556 108.716963,12.1003704 C131.535,6.75181481 153.264963,3.15733333 171.569,1.56907407 C177.753481,1.06751852 183.354185,0.816740741 188.36837,0.816740741 C193.382556,0.816740741 197.812963,1.06751852 201.407444,1.56907407 C208.929407,2.65577778 213.109037,4.82918519 214.195741,8.17151852 C214.279333,8.3387037 214.362926,8.50588889 214.362926,8.67307407 C214.530111,9.25822222 214.530111,9.84337037 214.446519,10.5121111 C216.787111,36.5888889 224.476259,125.937037 228.823074,197.397741 L229.157444,202.244741 C229.575407,208.847185 229.909778,215.11663 230.244148,220.799556 C230.327741,221.802667 230.327741,222.805778 230.411333,223.725296 C230.745704,230.244148 230.912889,235.426889 230.912889,240.023111 C230.996481,245.204481 230.829296,249.885667 230.578519,254.398296 C230.494926,255.81937 230.411333,257.240444 230.244148,258.995889 C229.659,265.18037 228.739481,271.031852 227.402,276.881963 C227.06763,278.135852 226.733259,279.724111 226.231704,281.395963 C224.225481,288.917926 221.466926,296.021926 218.208185,302.542148 C215.700407,307.472741 212.943222,311.986741 209.850296,316.16637 C209.097963,317.169481 208.34563,318.256185 207.342519,319.426481 C206.423,320.513185 205.587074,321.599889 204.667556,322.519407 L204.333185,322.93737 C203.998815,323.271741 203.664444,323.606111 203.413667,323.940481 C200.320741,327.200593 197.730741,329.456222 196.058889,330.793704 C194.219852,332.29837 193.049556,332.967111 192.965963,333.050704 L192.464407,333.385074 L38.8431481,333.386444 L38.8431481,333.386444 Z" id="Shape" fill="#E6E7E8"></path>
                <g transform="translate(1.370370, 2.740741)">
                    <path d="M21.6765185,312.341667 L206.808074,312.341667 C205.972148,313.511963 205.136222,314.515074 204.300296,315.518185 C203.380778,316.604889 202.544852,317.608 201.708926,318.527519 C201.290963,319.029074 200.873,319.447037 200.455037,319.865 C197.612889,322.874333 195.106481,325.129963 193.267444,326.551037 C191.512,327.972111 190.425296,328.640852 190.425296,328.640852 L37.9743333,328.640852 C37.9743333,328.640852 33.6275185,325.965889 27.9445926,319.865 C25.9383704,317.857407 23.8499259,315.34963 21.6765185,312.341667 Z" id="Shape" fill="#58595B"></path>
                    <path d="M225.613667,196.916741 L2.87092593,196.916741 C2.87092593,196.248 2.95451852,195.579259 2.95451852,194.826926 C5.79666667,147.938333 10.1421111,93.0262222 13.4022222,53.6595926 C13.4858148,52.2385185 13.653,50.901037 13.7365926,49.5635556 C19.4195185,39.0322593 58.618963,22.818037 107.764556,11.2836296 C131.084148,5.85148148 152.897704,2.257 170.365815,0.835925926 L199.702704,0.835925926 C206.137963,1.75544444 210.150407,3.59448148 210.986333,6.26807407 C210.986333,6.76962963 211.069926,7.35477778 211.153519,7.85633333 C213.410519,33.347963 221.183259,123.364852 225.530074,194.909148 C225.530074,195.495667 225.613667,196.164407 225.613667,196.916741 Z" id="Shape" fill="#F1F2F2"></path>
                    <path d="M227.200556,251.578074 C227.116963,253.082741 226.949778,254.587407 226.866185,256.092074 C226.281037,262.025778 225.445111,267.793667 224.024037,273.72737 C223.689667,275.232037 223.271704,276.653111 222.853741,278.24137 C220.680333,286.181296 217.923148,293.118111 214.913815,299.053185 C212.238852,304.234556 209.481667,308.664963 206.723111,312.42663 L21.6765185,312.42663 C18.917963,308.664963 16.0771852,304.235926 13.4858148,299.053185 C10.4764815,293.119481 7.7192963,286.181296 5.54588889,278.24137 C5.12792593,276.736704 4.79355556,275.232037 4.45918519,273.72737 C3.03811111,267.793667 2.20218519,262.025778 1.61703704,256.092074 C1.44985185,254.587407 1.36625926,253.082741 1.28266667,251.578074 C1.11548148,249.321074 1.03188889,246.980481 1.03188889,244.641259 C1.03188889,243.053 0.948296296,241.464741 0.948296296,239.794259 C0.948296296,238.958333 0.948296296,238.122407 0.948296296,237.286481 C1.03188889,232.272296 1.19907407,226.92237 1.44985185,221.072259 C1.44985185,220.069148 1.53344444,219.066037 1.61703704,218.146519 C1.95140741,211.711259 2.36937037,204.689481 2.87092593,196.833148 L225.697259,196.833148 C226.198815,204.689481 226.616778,211.709889 226.951148,218.146519 C226.951148,219.14963 227.034741,220.152741 227.118333,221.072259 C227.369111,226.92237 227.619889,232.272296 227.619889,237.286481 C227.618519,242.384259 227.534926,247.065444 227.200556,251.578074 Z" id="Shape" fill="#D1D3D4"></path>
                    <path d="M211.069926,7.8577037 C209.732444,18.2218148 168.693963,35.8571111 116.373222,48.1438519 C63.132963,60.5977778 17.9148519,63.0205926 13.4022222,53.7431852 C13.3186296,53.4924074 13.1514444,53.2416296 13.1514444,52.9908519 C12.9006667,51.9877407 13.1514444,50.8174444 13.8201852,49.6471481 C19.5031111,39.1158519 58.7025556,22.9016296 107.848148,11.3672222 C131.167741,5.93507407 152.981296,2.34059259 170.449407,0.919518519 C182.652556,-0.0835925926 192.682296,-0.0835925926 199.786296,0.919518519 C206.221556,1.83903704 210.234,3.67807407 211.069926,6.35166667 C211.069926,6.43525926 211.153519,6.51885185 211.153519,6.60244444 C211.153519,6.85459259 211.153519,7.35614815 211.069926,7.8577037 Z" id="Shape" fill="#FFFFFF"></path>
                    <g transform="translate(83.340827, 17.444444)" id="Oval">
                        <ellipse fill="#34A853" transform="translate(27.849187, 4.360064) rotate(-105.284266) translate(-27.849187, -4.360064) " cx="27.8491873" cy="4.36006393" rx="1.67180012" ry="5.51557008"></ellipse>
                        <ellipse fill="#4285F4" transform="translate(51.487182, 3.110212) rotate(-105.284266) translate(-51.487182, -3.110212) " cx="51.4871819" cy="3.11021215" rx="1.67180012" ry="5.51557008"></ellipse>
                        <ellipse fill="#FBBC05" transform="translate(5.941647, 14.233750) rotate(-105.284266) translate(-5.941647, -14.233750) " cx="5.94164655" cy="14.2337499" rx="1.67180012" ry="5.51557008"></ellipse>
                        <ellipse fill="#EA4335" transform="translate(29.601471, 13.063173) rotate(-105.284266) translate(-29.601471, -13.063173) " cx="29.6014714" cy="13.0631732" rx="1.67180012" ry="5.51557008"></ellipse>
                    </g>
                </g>
            </g>
            <g id="Group" transform="translate(290.266753, 191.851852)">
                <path d="M65.406025,2.37074074 L64.8208768,2.37074074 C59.2215435,2.37074074 54.7075435,6.88474074 54.7075435,12.4840741 L54.7075435,32.7107407 C54.7075435,38.3100741 59.2215435,42.8240741 64.8208768,42.8240741 L179.409877,42.8240741 C185.00921,42.8240741 189.52321,38.3100741 189.52321,32.7107407 L189.52321,12.4840741 C189.52321,6.88474074 185.00921,2.37074074 179.409877,2.37074074 L86.2178398,2.37074074 C83.710062,2.37074074 67.8302102,2.37074074 65.406025,2.37074074 Z" id="Shape" stroke="#E6E7E8" stroke-width="1.4979" fill="#FFFFFF" fill-rule="nonzero"></path>
                <text id="Hi,-how-can-I-help?" fill="#212121" font-family="Roboto-Regular, Roboto" font-size="13.5" font-weight="normal">
                    <tspan x="66.5178065" y="27.5084667">Hi, how can I help?</tspan>
                </text>
                <g fill-rule="nonzero">
                    <circle id="Oval" stroke="#FFFFFF" stroke-width="0.4048" fill="#FFFFFF" cx="22.1119139" cy="22.5974074" r="21.9821111"></circle>
                    <g transform="translate(8.473988, 10.962963)">
                        <circle id="Oval" fill="#34A853" cx="24.9201852" cy="6.78607407" r="1.75544444"></circle>
                        <path d="M19.5716296,14.4765926 C21.5778519,14.4765926 23.1661111,12.8883333 23.1661111,10.8821111 C23.1661111,8.87588889 21.5778519,7.28762963 19.5716296,7.28762963 C17.5654074,7.28762963 15.9771481,8.87588889 15.9771481,10.8821111 C15.9771481,12.8883333 17.5654074,14.4765926 19.5716296,14.4765926" id="Shape" fill="#EA4335"></path>
                        <path d="M19.5716296,24.0047778 C21.8286296,24.0047778 23.7512593,22.1657407 23.7512593,19.8251481 C23.7512593,17.4845556 21.9122222,15.6455185 19.5716296,15.6455185 C17.3146296,15.6455185 15.392,17.4845556 15.392,19.8251481 C15.392,22.1657407 17.3146296,24.0047778 19.5716296,24.0047778" id="Shape" fill="#FBBC05"></path>
                        <circle id="Oval" fill="#4285F4" cx="7.70285185" cy="7.37122222" r="7.104"></circle>
                    </g>
                </g>
            </g>
        </g>
    </g>
</svg>