<?xml version="1.0" ?><svg baseProfile="tiny" height="512px" id="Layer_1" version="1.2" viewBox="0 0 512 512" width="512px" xml:space="preserve" xmlns="http://www.w3.org/2000/svg" xmlns:xlink="http://www.w3.org/1999/xlink"><g><path d="M395.979,471.238c-12.588,21.301-24.969,32.225-24.969,32.225S327.141,512,252.221,512   c-74.931,0-108.705-8.537-108.705-8.537s-11.309-9.853-23.537-28.708c34.834,6.767,80.254,10.854,129.924,10.854   C307.667,485.609,359.668,480.077,395.979,471.238z" fill="#37474F"/><linearGradient gradientUnits="userSpaceOnUse" id="SVGID_1_" x1="90.3247" x2="421.6748" y1="392.1348" y2="392.1348"><stop offset="0" style="stop-color:#0AAEED"/><stop offset="0.0799" style="stop-color:#1CB5E5"/><stop offset="0.2799" style="stop-color:#45C4D4"/><stop offset="0.476" style="stop-color:#65D0C6"/><stop offset="0.6649" style="stop-color:#7CD9BC"/><stop offset="0.8432" style="stop-color:#89DEB6"/><stop offset="1" style="stop-color:#8EE0B4"/></linearGradient><path d="M420.635,397.859c-0.814,6.661-1.934,13.009-3.296,19.054   c-5.021,22.359-13.266,40.517-21.418,54.317c-36.313,8.839-88.313,14.371-146.075,14.371c-49.671,0-95.091-4.088-129.925-10.854   c-9.713-14.977-19.997-35.648-25.61-61.585c-1.176-5.393-2.143-11.006-2.864-16.852c-2.168-17.574-0.979-54.446,1.723-97.234   c36.021,11.391,95.195,18.82,162.104,18.82c67.731,0,127.558-7.616,163.439-19.228   C421.485,343.483,422.707,381.042,420.635,397.859z" fill="url(#SVGID_1_)"/><path d="M415.15,246.712c-7.593-99.749-19.052-209.072-19.052-209.072l-282.583,34.88   c0,0-9.631,87.987-16.468,173.737c-1.432,17.981-2.736,35.87-3.819,52.826c36.021,11.391,95.196,18.82,162.103,18.82   c67.734,0,127.561-7.616,163.441-19.228C417.748,282.116,416.513,264.565,415.15,246.712z" fill="#EEEEEE"/><ellipse cx="254.72" cy="56.244" fill="#E0E0E0" rx="142.853" ry="52.37" transform="matrix(0.9881 -0.1541 0.1541 0.9881 -5.6241 39.9148)"/><g><ellipse cx="220.898" cy="54.498" fill="#4CAF50" rx="7.77" ry="2.849" transform="matrix(0.9881 -0.1541 0.1541 0.9881 -5.7589 34.6836)"/><ellipse cx="269.327" cy="42.658" fill="#2196F3" rx="7.769" ry="2.848" transform="matrix(0.9881 -0.1541 0.1541 0.9881 -3.3566 42.0061)"/><ellipse cx="240.018" cy="69.833" fill="#FFEB3B" rx="7.77" ry="2.848" transform="matrix(0.9881 -0.1541 0.1541 0.9881 -7.8929 37.81)"/><ellipse cx="288.542" cy="57.557" fill="#F44336" rx="7.77" ry="2.848" transform="matrix(0.9881 -0.1541 0.1541 0.9881 -5.4225 45.1418)"/></g></g></svg>